<svg id="svg8" xmlns="http://www.w3.org/2000/svg" viewBox="0 0 6387.96 3207.59"><defs><style>.cls-1{fill:lime;}.cls-2{fill:#fff;}.cls-3{font-size:30px;font-family:Helvetica;}</style></defs><path class="cls-1" d="M4573.58,1784.9a1.53,1.53,0,1,1-1.52,1.52A1.52,1.52,0,0,1,4573.58,1784.9Z" transform="translate(1258.48 753.46)"/><path class="cls-1" d="M4579.52,1812.81a1.53,1.53,0,1,1-1.53,1.53A1.52,1.52,0,0,1,4579.52,1812.81Z" transform="translate(1258.48 753.46)"/><path class="cls-1" d="M4585.5,1818.79a1.53,1.53,0,1,1-1.52,1.53A1.52,1.52,0,0,1,4585.5,1818.79Z" transform="translate(1258.48 753.46)"/><path class="cls-1" d="M4585.5,1818.8a1.53,1.53,0,1,1-1.53,1.53A1.53,1.53,0,0,1,4585.5,1818.8Z" transform="translate(1258.48 753.46)"/><path class="cls-1" d="M4580.36,1826.31a1.52,1.52,0,1,1-1.52,1.52A1.53,1.53,0,0,1,4580.36,1826.31Z" transform="translate(1258.48 753.46)"/><path class="cls-1" d="M4596,1826.12a1.52,1.52,0,1,1-1.52,1.52A1.52,1.52,0,0,1,4596,1826.12Z" transform="translate(1258.48 753.46)"/><path class="cls-1" d="M4583.83,1799.4a1.53,1.53,0,1,1-1.52,1.52A1.53,1.53,0,0,1,4583.83,1799.4Z" transform="translate(1258.48 753.46)"/><path class="cls-1" d="M4589.17,1808a1.52,1.52,0,1,1-1.52,1.52A1.52,1.52,0,0,1,4589.17,1808Z" transform="translate(1258.48 753.46)"/><path class="cls-1" d="M4596.3,1800.62a1.53,1.53,0,1,1-1.52,1.52A1.52,1.52,0,0,1,4596.3,1800.62Z" transform="translate(1258.48 753.46)"/><path class="cls-1" d="M4595.64,1814.68a1.53,1.53,0,1,1-1.52,1.53A1.52,1.52,0,0,1,4595.64,1814.68Z" transform="translate(1258.48 753.46)"/><path class="cls-1" d="M4601,1809.62a1.53,1.53,0,0,1,0,3.05,1.53,1.53,0,1,1,0-3.05Z" transform="translate(1258.48 753.46)"/><path class="cls-1" d="M4587.76,1828a1.53,1.53,0,1,1-1.53,1.53A1.52,1.52,0,0,1,4587.76,1828Z" transform="translate(1258.48 753.46)"/><path class="cls-2" d="M719.16,286.42,1029.71,726l377.93,36.93L1252.17,655.25ZM698.28,291,880.8,1149.28,1013.27,737ZM1382,300.35l31.45,267.32-3.16,12.69L1047.48,414.73l774.63,376.38.44-1.28L1722.13,729Zm-591.81,11.2,657.67,455.23,124.81,8,196.74,12.64Zm253.12,435.58,134.59,217.42,28.09,45.36L1423.34,784.2Zm-16.24,11.45L895.52,1167.84l249.32-123.32,45.47-22.46Zm434.27,28.78,85.7,164.74,57,109.5,132.11-170.51,63.4-82-211.8-13.67Zm-19.31,5.78L1224.87,1018.9,1585,1067.38l-84.87-162.82Zm475.3,78.15,60.38,319.26,222.86-42.16ZM1774,874.45l-162.63,209.71-85.31,284.07-40.53,135Zm119.43,6.37-134.54,358.81,194-43.84-55-291.08ZM1783.8,900.27l-336,732.42.15.89a1.46,1.46,0,0,0,0,.2c0,.34.08.69.1,1a14.54,14.54,0,0,1,.05,1.48c0,.35-.05.69-.1,1a12.66,12.66,0,0,1-2.42,6l-14.91,24.93-60.77,412Zm-552.51,139.22,191.36,196.93,158.08-149.79Zm-22.86,5-111.48,327,211.75-85.76,96.37-39.09Zm-21.13.89L895.57,1190l180.74,180.59,82.7-242.25Zm395.06,66.94-150,142.23,6.42,190.91,4.45,129.94Zm612.15,63-72.67,13.77-142.53,27.06-26.62,244.52-.44,4.24Zm39.43,13.94-268.06,298.9,267-33.39Zm-280.65,32.46-70,15.8-122,27.5,164.56,208Zm-540.22,43-309.31,125.4,321.06,222.85-6-178.27Zm320.71,6.32-6.07,16.25,111.88,117.54ZM1100.6,1418.73l65.32,264L1345,1642.86l59.54-13.32Zm-25.77.74L928.2,1633.83,1087,1669.38l52.38,11.7-55.54-225.22Zm1145.9,59.64-141.65,19.2-117,16,258.61,257.5Zm-811.12,175.36L1169.28,1708v348.54Zm-487.38,3.9,26.21,200,14.12,107.52,88.23-132.06L1136,1706.2l-70.5-15.79Zm221.67,81.31-171,256.61,171,85.61Zm1085.62,74.74,3.9,4.1v-3.46A12.6,12.6,0,0,1,2229.52,1814.42ZM919.21,1830.36l-1.67,412,18.66-186.51,5.43-54.31v0Zm46,190.32-23.7,237-19.65,196.48,216.84-346.71ZM3747.67,286.42,3437.13,726,3059.2,762.88l155.46-107.63Zm20.89,4.6L3586,1149.28,3453.57,737Zm-683.74,9.33-31.45,267.32,3.16,12.69,362.83-165.63L2644.73,791.11l-.45-1.28L2744.7,729Zm591.81,11.2L3019,766.78l-124.81,8-196.74,12.64ZM3423.5,747.13,3288.92,964.55l-28.09,45.36L3043.5,784.2Zm16.25,11.45,131.57,409.26L3322,1044.52l-45.47-22.46Zm-434.27,28.78L2919.77,952.1l-57,109.5L2730.68,891.09l-63.39-82,211.8-13.67Zm19.3,5.78L3242,1018.9l-360.11,48.48,84.86-162.82Zm-475.29,78.15-60.38,319.26-222.86-42.16Zm143.32,3.16,162.63,209.71,85.31,284.07,40.54,135Zm-119.42,6.37,134.53,358.81-194-43.84,55-291.08ZM2683,900.27l336,732.42c0,.3-.1.6-.16.89a.73.73,0,0,1-.05.2c0,.34-.07.69-.1,1a14.54,14.54,0,0,0-.05,1.48c0,.35.05.69.1,1a12.76,12.76,0,0,0,2.42,6l14.91,24.93,60.78,412Zm552.51,139.22-191.36,196.93L2886.1,1086.63Zm22.86,5,111.48,327-211.76-85.76-96.37-39.09Zm21.13.89L3571.27,1190,3390.52,1370.6l-82.69-242.25Zm-395.07,66.94,150,142.23L3028,1445.44l-4.44,129.94Zm-612.15,63,72.68,13.77,142.53,27.06,26.61,244.52.44,4.24Zm-39.43,13.94L2501,1488.14l-267-33.39Zm280.66,32.46,70,15.8L2705.5,1265,2541,1473Zm540.21,43,309.31,125.4L3042,1612.9l6-178.27ZM2733.05,1271l6.07,16.25-111.87,117.54Zm633.18,147.76-65.31,264-179.07-39.89-59.54-13.32Zm25.77.74,146.64,214.36-158.78,35.55-52.38,11.7L3383,1455.86Zm-1145.89,59.64,141.64,19.2,117,16-258.6,257.5Zm811.11,175.36L3297.56,1708v348.54Zm487.39,3.9-26.22,200-14.12,107.52-88.22-132.06-85.17-127.62,70.5-15.79Zm-221.68,81.31,171,256.61-171,85.61Zm-1085.61,74.74-3.9,4.1v-3.46A12.64,12.64,0,0,0,2237.32,1814.42Zm1310.3,15.94,1.68,412-18.66-186.51-5.43-54.31v0Zm-46,190.32,23.7,237L3545,2454.13l-216.83-346.71Z" transform="translate(1258.48 753.46)"/><text class="cls-3" transform="translate(0.03 25.11)">T</text><text class="cls-3" transform="translate(6334.32 539.4)">+++</text></svg>